<svg xmlns="http://www.w3.org/2000/svg" width="30.836" height="30.836" viewBox="0 0 30.836 30.836"><defs><style>.a{fill:#b2b4b8;}.b{fill:none;}</style></defs><path class="a" d="M9.709,24.557a2.57,2.57,0,1,0,2.57,2.57A2.558,2.558,0,0,0,9.709,24.557ZM2,4V6.57H4.57l4.619,9.745L7.454,19.463a2.612,2.612,0,0,0-.315,1.24,2.569,2.569,0,0,0,2.57,2.57H25.127V20.7H10.255a.318.318,0,0,1-.321-.321.305.305,0,0,1,.039-.154l1.15-2.094h9.572a2.578,2.578,0,0,0,2.248-1.323l4.593-8.339a1.242,1.242,0,0,0,.161-.617A1.284,1.284,0,0,0,26.412,6.57h-19L6.195,4H2ZM22.557,24.557a2.57,2.57,0,1,0,2.57,2.57A2.558,2.558,0,0,0,22.557,24.557Z" transform="translate(-0.715 -1.43)"/><path class="b" d="M0,0H30.836V30.836H0Z"/></svg>