<?xml version="1.0" encoding="utf-8"?>
<!-- Generator: Adobe Illustrator 23.0.0, SVG Export Plug-In . SVG Version: 6.00 Build 0)  -->
<svg version="1.1" id="Capa_1" focusable="false" xmlns="http://www.w3.org/2000/svg" xmlns:xlink="http://www.w3.org/1999/xlink"
	 x="0px" y="0px" viewBox="0 0 512 512" style="enable-background:new 0 0 512 512;" xml:space="preserve">
<style type="text/css">
	.st0{fill:#FFFFFF;}
</style>
<path class="st0" d="M256,8C119,8,8,119,8,256s111,248,248,248s248-111,248-248S393,8,256,8z M373.1,354.8
	c-1.6,1.9-39.8,45.7-109.9,45.7c-84.7,0-144.5-63.3-144.5-145.6c0-81.3,62-143.4,143.8-143.4c67,0,102,37.3,103.4,38.9
	c3.7,4,4.2,10,1.2,14.6l-22.4,34.7c-4,6.3-12.8,7.4-18.2,2.3c-0.2-0.2-26.5-23.9-61.9-23.9c-46.1,0-73.9,33.6-73.9,76.1
	c0,39.6,25.5,79.7,74.3,79.7c38.7,0,65.3-28.3,65.5-28.6c5.1-5.6,14.1-5,18.5,1.1l24.5,33.6C377,344.4,376.7,350.5,373.1,354.8
	L373.1,354.8z"/>
</svg>
