<svg xmlns="http://www.w3.org/2000/svg" width="41.699" height="41.699" viewBox="0 0 41.699 41.699"><defs><style>.a{fill:none;}.b{fill:#b2b4b8;}</style></defs><path class="a" d="M0,0H41.7V41.7H0Z"/><path class="b" d="M35.749,8.95H22.562l5.716-5.716L27.062,2l-6.95,6.95L13.162,2,11.929,3.234,17.662,8.95H4.475A3.474,3.474,0,0,0,1,12.425v20.85a3.485,3.485,0,0,0,3.475,3.475H35.749a3.485,3.485,0,0,0,3.475-3.475V12.425A3.474,3.474,0,0,0,35.749,8.95Zm0,24.325H4.475V12.425H35.749ZM14.9,15.9V29.8l12.162-6.95Z" transform="translate(0.737 1.475)"/></svg>