<?xml version="1.0" encoding="utf-8"?>
<!-- Generator: Adobe Illustrator 23.0.0, SVG Export Plug-In . SVG Version: 6.00 Build 0)  -->
<svg version="1.1" id="Capa_1" focusable="false" xmlns="http://www.w3.org/2000/svg" xmlns:xlink="http://www.w3.org/1999/xlink"
	 x="0px" y="0px" viewBox="0 0 640 512" style="enable-background:new 0 0 640 512;" xml:space="preserve">
<style type="text/css">
	.st0{fill:#FFFFFF;}
</style>
<path class="st0" d="M608,0H160c-17.7,0-32,14.3-32,32v96h160V64h192v320h128c17.7,0,32-14.3,32-32V32C640,14.3,625.7,0,608,0z
	 M232,103c0,5-4,9-9,9l0,0h-30c-5,0-9-4-9-9l0,0V73c0-5,4-9,9-9h30c5,0,9,4,9,9V103z M584,311c0,5-4,9-9,9h-30c-5,0-9-4-9-9v-30
	c0-5,4-9,9-9h30c5,0,9,4,9,9V311z M584,207c0,5-4,9-9,9h-30c-5,0-9-4-9-9v-30c0-5,4-9,9-9h30c5,0,9,4,9,9V207z M584,103c0,5-4,9-9,9
	l0,0h-30c-5,0-9-4-9-9l0,0V73c0-5,4-9,9-9h30c5,0,9,4,9,9V103z M416,160H32c-17.7,0-32,14.3-32,32v288c0,17.7,14.3,32,32,32h384
	c17.7,0,32-14.3,32-32V192C448,174.3,433.7,160,416,160z M96,224c17.7,0,32,14.3,32,32s-14.3,32-32,32s-32-14.3-32-32
	S78.3,224,96,224z M384,448H64v-32l64-64l32,32l128-128l96,96V448z"/>
</svg>
