<svg id="Layer_1" data-name="Layer 1" xmlns="http://www.w3.org/2000/svg" viewBox="0 0 321.95 81.2"><defs><style>.cls-1{fill:#F58220;}</style></defs><title>canadandp-logo-orange-en</title><path class="cls-1" d="M80.5,45.9c-1.1.2-2.7.4-3.6-.4s-.6-2.2-.3-3.2c.7-2.1,2.1-5.5,3.7-11.2.2-.6-.2-.9-1-.6s-4.1,1.7-7,2.4c-1.8.5-5,1.6-6.4-.2a3.22,3.22,0,0,1-.6-2.1c-.1-.5-.2-4.4-1.4-2.9-6,7.8-11.8,14.3-11,7.3s2-14.7,3-21.7c.2-1.1,0-1.5-1.1-.9l-3,1.8a3.61,3.61,0,0,1-4.2.1c-1.2-1-5.8-11.9-6.5-13.4-.6-1.2-.8-1.2-1.4,0-.4.8-3.6,7.7-5.3,10.7-1.5,2.6-4.9.8-6.2,0a23.07,23.07,0,0,1-1.9-1.4c-.3-.2-.6-.4-.9-.3-.6.3-.4,1.4-.3,1.7,1.2,5.4,3.6,17.6,3.6,20.2s-1.6,1.7-2.3,1.1A56.83,56.83,0,0,0,13.7,25c-.7-.3-1-.1-.9.7s.4,1.5.6,2.2c.2,1,.4,4.1-1.4,3.9-4.2-.3-9.2-.9-11.3-.6-.8.1-.9.4-.1,1.7a95.17,95.17,0,0,1,4.9,9c.9,2,.9,4.2-1.3,5.1a8,8,0,0,0-2.4,1.3c-.6.7,2.7,1.8,3.2,1.9,4,1.5,12.7,4.5,15.1,8.5.8,1.3-.3,2.6-1.1,3.7-.4.5-2.2,3-.4,2.7,6.6-1.1,13.3-1.4,20.1.8L38,81.2h5.2l-.7-14a32.55,32.55,0,0,0,15.2,1.3,40,40,0,0,0,4.2-.9c2.9-.9,1-1.6.5-1.7-1.7-.5-2.9-2.9,0-4.4,7-3.6,10-5.1,18.4-14.2.4-1,.2-1.5-.3-1.4" transform="translate(-0.05)"/><polygon class="cls-1" points="134.95 4.6 134.95 28.6 116.95 4.6 89.95 4.6 89.95 76.6 116.95 76.6 116.95 52.6 134.95 76.6 161.95 76.6 161.95 4.6 134.95 4.6"/><path class="cls-1" d="M289.6,4.6H250v72h28.5V63.1h11.1c15,0,32.4-7.3,32.4-29.2S304.6,4.6,289.6,4.6Zm-1.1,37.5h-10V25.6h10a8,8,0,0,1,8,8.2A8.07,8.07,0,0,1,288.5,42.1Z" transform="translate(-0.05)"/><path class="cls-1" d="M207,4.6H171v72h36c18,0,36-9,36-36S225,4.6,207,4.6Zm-1.1,47H198v-22h7.9c5.3,0,10.5,2.8,10.5,11S211.1,51.6,205.9,51.6Z" transform="translate(-0.05)"/></svg>